<svg viewBox="0 0 300 300" xmlns="http://www.w3.org/2000/svg">
    <defs>
        <linearGradient id="flaskGrad" x1="0" y1="0" x2="0" y2="1">
            <stop offset="0" stop-color="#bdddeb" />
            <stop offset="1" stop-color="#53a9d1" />
        </linearGradient>
    </defs>
    <rect fill="url(#flaskGrad)" width="300" height="300" rx="30" />
    <g id="Icon">
        <path
            d="M140.801,81.591c-0.021,-1.494 -0.174,-1.996 -0.972,-2.456c-0.758,-0.502 -1.904,-0.512 -2.999,-0.031l-73.683,31.551c-1.095,0.481 -2.128,1.443 -2.681,2.486c-0.552,1.044 -0.614,2.149 -0.184,2.937l6.151,11.298l0.081,0.133c0.666,1.055 2.17,1.331 3.705,0.655l0.45,-0.194c1.924,8.064 5.076,18.155 9.282,25.349l64.186,-28.726c-0.921,-8.33 -3.439,-32.257 -3.336,-43.012l-0,0.01Z"
            fill="#fff" />
        <path
            d="M145.897,134.079l-61.811,27.662c3.633,6.887 8.115,14.194 13.58,21.235c18.154,-9.251 36.319,-18.502 54.474,-27.754c-1.177,-3.049 -2.323,-6.355 -6.243,-21.143Z"
            fill="#fff" />
        <path
            d="M239.136,199.984l-4.37,-6.672c-0.655,-0.727 -1.668,-1.003 -2.558,-0.645l-5.608,2.16c-0.665,-0.737 -1.627,-1.013 -2.569,-0.645c-1.832,0.716 -3.674,1.443 -5.505,2.159c-0.594,0.225 -0.758,0.665 -0.645,1.239l0.358,1.749c-10.336,1.116 -27.805,0.563 -43.452,-11.727c-6.918,-5.424 -13.406,-13.099 -18.82,-23.835l-52.11,26.557c9.528,10.469 21.491,19.751 36.35,25.338c20.672,7.788 47.014,8.525 80.222,-4.85l0.184,0.941c0.164,1.054 1.433,2.17 3.152,1.494l5.516,-2.149c1.893,-0.716 1.904,-2.169 1.627,-3.111l7.103,-2.773c0.798,-0.307 3.274,-2.221 1.146,-5.23l-0.021,0Z"
            fill="#fff" />
    </g>
</svg>
