<svg data-logo="logo" xmlns="http://www.w3.org/2000/svg" viewBox="0 0 174 42">
    <g style="opacity: 1;" id="logogram" transform="translate(0, 1) rotate(0)">
        <path
            d="M0 33L4.60606 25H12.2448C17.2569 25 21.4947 28.7103 22.1571 33.6784L23 40H13L11.5585 36.6365C10.613 34.4304 8.44379 33 6.04362 33H0Z"
            fill="#111"></path>
        <path
            d="M46 33L41.3939 25H33.7552C28.7431 25 24.5053 28.7103 23.8429 33.6784L23 40H33L34.4415 36.6365C35.387 34.4304 37.5562 33 39.9564 33H46Z"
            fill="#111"></path>
        <path
            d="M4.60606 25L18.9999 0H23L22.6032 9.52405C22.2608 17.7406 15.7455 24.3596 7.53537 24.8316L4.60606 25Z"
            fill="#111"></path>
        <path
            d="M41.3939 25L27.0001 0H23L23.3968 9.52405C23.7392 17.7406 30.2545 24.3596 38.4646 24.8316L41.3939 25Z"
            fill="#111"></path>
    </g>
    <g style="opacity: 1;" id="logotype" transform="translate(52, 8)">
        <path fill="#111111"
            d="M15.07 26.32L15.07 26.32Q13.25 26.32 11.76 25.72Q10.27 25.13 9.20 24.02Q8.13 22.92 7.58 21.36Q7.02 19.80 7.02 17.91L7.02 17.91L7.02 15.25Q7.02 12.73 8.01 10.86Q9.01 8.99 10.81 7.94Q12.62 6.89 15.07 6.89L15.07 6.89Q17.06 6.89 18.62 7.66Q20.18 8.43 20.91 9.72L20.91 9.72L21.16 9.72L21.68 7.20L26.93 7.20L26.93 26L21.68 26L21.12 23.45L20.91 23.45Q20.18 24.77 18.62 25.55Q17.06 26.32 15.07 26.32ZM17.13 22.11L17.13 22.11Q18.50 22.11 19.55 21.52Q20.59 20.93 21.12 19.91L21.12 19.91L21.12 13.29Q20.59 12.28 19.55 11.68Q18.50 11.09 17.13 11.09L17.13 11.09Q15.91 11.09 14.96 11.54Q14.02 12.00 13.51 12.86Q13 13.71 13 14.90L13 14.90L13 18.27Q13 19.45 13.51 20.33Q14.02 21.20 14.96 21.66Q15.91 22.11 17.13 22.11ZM35.44 26L29.66 26L29.66 7.20L35.44 7.20L35.44 26ZM35.44 4.82L29.66 4.82L29.66 0.20L35.44 0.20L35.44 4.82ZM49.93 26L44.12 26Q42.40 26 41.40 25.16Q40.41 24.32 40.41 22.57L40.41 22.57L40.41 2.09L46.18 2.09L46.18 21.52L49.93 21.52L49.93 26ZM49.82 11.44L37.36 11.44L37.36 7.20L49.82 7.20L49.82 11.44ZM57.87 26L52.10 26L52.10 7.20L57.28 7.20L57.87 9.76L58.12 9.76Q59.17 8.36 60.76 7.63Q62.35 6.89 64.31 6.89L64.31 6.89Q66.66 6.89 68.21 7.75Q69.77 8.60 70.56 10.18Q71.35 11.75 71.35 13.99L71.35 13.99L71.35 26L65.57 26L65.57 14.80Q65.57 13.64 65.17 12.84Q64.77 12.03 64.00 11.63Q63.23 11.23 62.07 11.23L62.07 11.23Q60.67 11.23 59.60 11.86Q58.54 12.49 57.87 13.50L57.87 13.50L57.87 26ZM85.59 26L79.78 26Q78.07 26 77.07 25.16Q76.07 24.32 76.07 22.57L76.07 22.57L76.07 2.09L81.85 2.09L81.85 21.52L85.59 21.52L85.59 26ZM85.49 11.44L73.03 11.44L73.03 7.20L85.49 7.20L85.49 11.44ZM97.21 26.35L97.21 26.35Q94.90 26.35 93.05 25.74Q91.19 25.13 89.86 23.97Q88.53 22.81 87.83 21.15Q87.13 19.49 87.13 17.42L87.13 17.42L87.13 15.74Q87.13 13.01 88.37 11.02Q89.62 9.02 91.89 7.94Q94.17 6.85 97.21 6.85L97.21 6.85Q99.45 6.85 101.25 7.47Q103.06 8.08 104.35 9.23Q105.65 10.39 106.35 12.02Q107.05 13.64 107.05 15.64L107.05 15.64L107.05 18.02L92.14 18.02L92.14 14.73L101.62 14.73L101.17 15.25L101.17 14.10Q101.17 13.08 100.68 12.33Q100.19 11.58 99.31 11.16Q98.44 10.74 97.21 10.74L97.21 10.74Q95.92 10.74 94.99 11.18Q94.06 11.61 93.57 12.40Q93.08 13.19 93.08 14.24L93.08 14.24L93.08 18.93Q93.08 19.95 93.59 20.75Q94.10 21.55 95.04 21.99Q95.99 22.43 97.28 22.43L97.28 22.43Q98.86 22.43 99.87 21.84Q100.89 21.24 101.17 20.16L101.17 20.16L106.84 20.16Q106.56 22.08 105.23 23.46Q103.90 24.84 101.83 25.60Q99.77 26.35 97.21 26.35ZM114.85 26L109.08 26L109.08 7.20L114.36 7.20L114.82 9.86L115.06 9.86Q115.69 8.29 116.69 7.61Q117.69 6.92 119.26 6.92L119.26 6.92L120.42 6.92L120.70 12.21L118.53 12.21Q117.58 12.21 116.92 12.45Q116.25 12.70 115.78 13.17Q115.31 13.64 114.85 14.34L114.85 14.34L114.85 26Z"></path>
    </g>

</svg>
